<svg width="24" height="23" viewBox="0 0 24 23" fill="none" xmlns="http://www.w3.org/2000/svg">
<path d="M21.9381 19.9736L16.9759 15.0113C18.1744 13.3388 18.7 11.2765 18.4481 9.2343C18.1962 7.19208 17.1854 5.31932 15.6163 3.98808C14.0473 2.65684 12.0349 1.96452 9.97894 2.04866C7.92297 2.13281 5.97388 2.98725 4.51887 4.44226C3.06386 5.89727 2.20941 7.84636 2.12527 9.90233C2.04113 11.9583 2.73344 13.9707 4.06469 15.5397C5.39593 17.1088 7.26868 18.1196 9.3109 18.3715C11.3531 18.6234 13.4154 18.0978 15.0879 16.8992L20.0502 21.8615C20.3077 22.072 20.6343 22.1794 20.9665 22.1628C21.2987 22.1461 21.6129 22.0067 21.8481 21.7715C22.0833 21.5363 22.2228 21.2221 22.2394 20.8899C22.256 20.5577 22.1486 20.2311 21.9381 19.9736ZM4.58844 10.258C4.58844 9.12076 4.92567 8.00905 5.55749 7.06347C6.18931 6.11789 7.08733 5.38089 8.13801 4.94569C9.18868 4.51049 10.3448 4.39662 11.4602 4.61848C12.5756 4.84035 13.6001 5.38798 14.4043 6.19213C15.2085 6.99629 15.7561 8.02084 15.978 9.13623C16.1998 10.2516 16.0859 11.4078 15.6507 12.4584C15.2155 13.5091 14.4785 14.4071 13.533 15.0389C12.5874 15.6708 11.4757 16.008 10.3384 16.008C8.81344 16.008 7.35091 15.4022 6.27257 14.3239C5.19424 13.2455 4.58844 11.783 4.58844 10.258Z" fill="#696969"/>
</svg>
